<svg width="512" height="512" viewBox="0 0 512 512" fill="none" xmlns="http://www.w3.org/2000/svg">
<g clip-path="url(#clip0_manage_ext)">
<path d="M384 0H128C57.3075 0 0 57.3075 0 128V384C0 454.692 57.3075 512 128 512H384C454.692 512 512 454.692 512 384V128C512 57.3075 454.692 0 384 0Z" fill="url(#paint0_radial_manage_ext)"/>
<rect x="120" y="120" width="148" height="148" rx="26" fill="white"/>
<rect x="276" y="120" width="148" height="148" rx="26" fill="white" fill-opacity="0.85"/>
<rect x="120" y="276" width="148" height="148" rx="26" fill="white" fill-opacity="0.85"/>
<rect x="276" y="276" width="148" height="148" rx="26" fill="white" fill-opacity="0.55"/>
<path d="M174 165 L150 194 L174 223" stroke="#065F46" stroke-width="14" stroke-linecap="round" stroke-linejoin="round" fill="none"/>
<path d="M214 165 L238 194 L214 223" stroke="#065F46" stroke-width="14" stroke-linecap="round" stroke-linejoin="round" fill="none"/>
<circle cx="408" cy="408" r="64" fill="white"/>
<circle cx="408" cy="408" r="64" stroke="#065F46" stroke-width="4"/>
<g transform="translate(408 408)">
<path d="M-6 -36 H6 L8 -24 C13 -22 17 -20 21 -16 L33 -20 L39 -10 L31 -1 C32 4 32 9 31 14 L39 23 L33 33 L21 29 C17 33 13 35 8 37 L6 49 H-6 L-8 37 C-13 35 -17 33 -21 29 L-33 33 L-39 23 L-31 14 C-32 9 -32 4 -31 -1 L-39 -10 L-33 -20 L-21 -16 C-17 -20 -13 -22 -8 -24 Z" fill="#065F46"/>
<circle cx="0" cy="6" r="12" fill="white"/>
</g>
</g>
<defs>
<radialGradient id="paint0_radial_manage_ext" cx="0" cy="0" r="1" gradientUnits="userSpaceOnUse" gradientTransform="translate(180 140) rotate(45) scale(520)">
<stop stop-color="#5EEAD4"/>
<stop offset="0.4" stop-color="#10B981"/>
<stop offset="1" stop-color="#064E3B"/>
</radialGradient>
<clipPath id="clip0_manage_ext">
<rect width="512" height="512" fill="white"/>
</clipPath>
</defs>
</svg>
