<svg width="512" height="512" viewBox="0 0 512 512" fill="none" xmlns="http://www.w3.org/2000/svg">
<g clip-path="url(#clip0_198_169)">
<path d="M384 0H128C57.3075 0 0 57.3075 0 128V384C0 454.692 57.3075 512 128 512H384C454.692 512 512 454.692 512 384V128C512 57.3075 454.692 0 384 0Z" fill="url(#paint0_radial_198_169)"/>
<path d="M79.3381 150.22C77.1166 138.837 84.5436 127.808 95.9268 125.587L368.78 72.3381C380.163 70.1166 391.192 77.5437 393.413 88.9269L446.662 361.78C448.883 373.163 441.456 384.192 430.073 386.413L157.22 439.662C145.837 441.883 134.808 434.456 132.587 423.073L79.3381 150.22Z" fill="#050404"/>
<path d="M96 117C96 105.402 105.402 96 117 96H395C406.598 96 416 105.402 416 117V395C416 406.598 406.598 416 395 416H117C105.402 416 96 406.598 96 395V117Z" fill="#1D1D1D"/>
<path d="M326 183C325.333 189.333 324.833 195.5 324.5 201.5C324.333 207.333 324.25 211.833 324.25 215C324.25 219 324.333 222.75 324.5 226.25C324.667 229.75 324.833 232.833 325 235.5H319.25C318.083 223.833 316.5 214.667 314.5 208C312.5 201.167 309 196.25 304 193.25C299 190.25 291.25 188.75 280.75 188.75H267.25V331C267.25 337.667 267.833 342.667 269 346C270.333 349.333 272.833 351.583 276.5 352.75C280.167 353.917 285.5 354.667 292.5 355V360C288.167 359.667 282.667 359.5 276 359.5C269.333 359.333 262.583 359.25 255.75 359.25C248.25 359.25 241.167 359.333 234.5 359.5C228 359.5 222.75 359.667 218.75 360V355C225.75 354.667 231.083 353.917 234.75 352.75C238.417 351.583 240.833 349.333 242 346C243.333 342.667 244 337.667 244 331V188.75H230.5C220.167 188.75 212.417 190.25 207.25 193.25C202.25 196.25 198.75 201.167 196.75 208C194.75 214.667 193.167 223.833 192 235.5H186.25C186.583 232.833 186.75 229.75 186.75 226.25C186.917 222.75 187 219 187 215C187 211.833 186.833 207.333 186.5 201.5C186.333 195.5 185.917 189.333 185.25 183C192.25 183.167 199.833 183.333 208 183.5C216.333 183.667 224.667 183.75 233 183.75C241.333 183.75 248.917 183.75 255.75 183.75C262.583 183.75 270.083 183.75 278.25 183.75C286.583 183.75 294.917 183.667 303.25 183.5C311.583 183.333 319.167 183.167 326 183Z" fill="white"/>
</g>
<defs>
<radialGradient id="paint0_radial_198_169" cx="0" cy="0" r="1" gradientUnits="userSpaceOnUse" gradientTransform="translate(256 256) scale(512)">
<stop stop-color="#F95356"/>
<stop offset="1" stop-color="#7E0000"/>
</radialGradient>
<clipPath id="clip0_198_169">
<rect width="512" height="512" fill="white"/>
</clipPath>
</defs>
</svg>
